<?xml version='1.0' encoding='utf-8'?>
<svg xmlns="http://www.w3.org/2000/svg" xmlns:ns1="http://www.w3.org/svg" viewBox="0 0 760 430" width="760" height="430"><rect width="760" height="430" fill="#f6f8fb" /><text x="30" y="34" font-family="Arial, Microsoft YaHei, sans-serif" fill="#172033" font-size="20" font-weight="700">验证集样本 15</text><text x="200" y="55" font-family="Arial, Microsoft YaHei, sans-serif" fill="#172033" text-anchor="middle" font-size="16" font-weight="600">数据集参考徽标</text><text x="560" y="55" font-family="Arial, Microsoft YaHei, sans-serif" fill="#172033" text-anchor="middle" font-size="16" font-weight="600">最终提交模型的真实输出</text><g><rect x="50" y="62" width="300" height="300" rx="12" fill="#ffffff" stroke="#ccd4e0" stroke-width="2" /><svg viewBox="0 0 256 256" x="62" y="74" width="276" height="276" preserveAspectRatio="xMidYMid meet"><rect x="-9999" y="-9999" width="19998" height="19998" fill="#0a0e1a" /><defs><radialGradient id="glow" cx="50%" cy="50%" r="50%"><stop offset="0%" stop-color="#22e5ff" stop-opacity="0.55" /><stop offset="55%" stop-color="#22e5ff" stop-opacity="0.18" /><stop offset="100%" stop-color="#22e5ff" stop-opacity="0" /></radialGradient><linearGradient id="shieldGrad" x1="20%" y1="0%" x2="80%" y2="100%"><stop offset="0%" stop-color="#a239ff" /><stop offset="50%" stop-color="#7a4fff" /><stop offset="100%" stop-color="#22e5ff" /></linearGradient><radialGradient id="navyGrad" cx="40%" cy="35%" r="70%"><stop offset="0%" stop-color="#182449" /><stop offset="100%" stop-color="#0a1024" /></radialGradient></defs><circle cx="128" cy="128" r="112" fill="none" stroke="#22e5ff" stroke-width="2.5" opacity="0.85" /><circle cx="128" cy="128" r="104" fill="url(#navyGrad)" /><circle cx="128" cy="128" r="98" fill="url(#glow)" /><polygon points="128,34 175,52 198,98 198,158 175,204 128,222 81,204 58,158 58,98 81,52" fill="none" stroke="url(#shieldGrad)" stroke-width="9" stroke-linejoin="round" /><rect x="86" y="46" width="22" height="9" rx="3" fill="#22e5ff" transform="rotate(-18 97 50)" /><rect x="148" y="46" width="22" height="9" rx="3" fill="#22e5ff" transform="rotate(18 159 50)" /><polygon points="108,88 108,168 176,128" fill="#ffffff" transform="rotate(6 128 128)" /></svg></g><g><rect x="410" y="62" width="300" height="300" rx="12" fill="#ffffff" stroke="#ccd4e0" stroke-width="2" /><ns1:svg viewBox="0 0 256 256" x="422" y="74" width="276" height="276" preserveAspectRatio="xMidYMid meet">
  <ns1:rect x="0" y="0" width="256" height="256" fill="white" />
  <ns1:rect x="128" y="0" width="256" height="256" fill="white" />
  <ns1:rect x="256" y="0" width="256" height="256" fill="white" />
  <ns1:rect x="424" y="0" width="256" height="256" fill="white" />
  <ns1:rect x="424" y="128" width="256" height="256" fill="white" />
  <ns1:rect x="424" y="256" width="256" height="256" fill="white" />
  <ns1:rect x="424" y="424" width="256" height="256" fill="white" />
</ns1:svg></g><text x="380" y="400" font-family="Arial, Microsoft YaHei, sans-serif" fill="#475467" text-anchor="middle" font-size="15">右图未经人工修复；完整闭合不等于具备有效视觉语义。</text></svg>